<svg width="28" height="27" viewBox="0 0 28 27" fill="none" xmlns="http://www.w3.org/2000/svg">
<path fill-rule="evenodd" clip-rule="evenodd" d="M14.0347 0.666687C6.68933 0.666687 0.735992 6.62002 0.735992 13.9654C0.735992 19.84 4.54533 24.8254 9.83066 26.5854C10.496 26.7054 10.736 26.296 10.736 25.944C10.736 25.628 10.7253 24.7907 10.7213 23.6827C7.02133 24.4854 6.23999 21.8987 6.23999 21.8987C5.63733 20.3627 4.76399 19.9534 4.76399 19.9534C3.55733 19.128 4.85599 19.1467 4.85599 19.1467C6.19199 19.24 6.89199 20.5174 6.89199 20.5174C8.07866 22.5494 10.0067 21.9627 10.7613 21.6227C10.8827 20.7627 11.2293 20.176 11.608 19.844C8.65599 19.5094 5.55199 18.368 5.55199 13.2707C5.55199 11.8214 6.07066 10.632 6.91733 9.70402C6.78266 9.36669 6.32266 8.01335 7.04933 6.18402C7.04933 6.18402 8.16533 5.82535 10.7053 7.54535C11.7901 7.25025 12.9091 7.09961 14.0333 7.09735C15.1576 7.09918 16.2766 7.24982 17.3613 7.54535C19.9027 5.82402 21.0173 6.18402 21.0173 6.18402C21.744 8.01335 21.288 9.36669 21.1493 9.70402C22.0027 10.632 22.5147 11.82 22.5147 13.2707C22.5147 18.3814 19.408 19.504 16.4453 19.8334C16.9187 20.244 17.3453 21.0547 17.3453 22.2947C17.3453 24.0734 17.3293 25.508 17.3293 25.944C17.3293 26.3 17.5667 26.7134 18.2453 26.5827C23.528 24.82 27.3333 19.8387 27.3333 13.9654C27.3333 6.62002 21.38 0.666687 14.0347 0.666687Z" fill="#D3E97A"/>
</svg>
