<svg width="30" height="19" viewBox="0 0 30 19" fill="none" xmlns="http://www.w3.org/2000/svg">
<path d="M0.517045 18V0.545454H7.40341C8.72159 0.545454 9.84659 0.78125 10.7784 1.25284C11.7159 1.71875 12.429 2.38068 12.9176 3.23864C13.4119 4.09091 13.6591 5.09375 13.6591 6.24716C13.6591 7.40625 13.4091 8.40341 12.9091 9.23864C12.4091 10.0682 11.6847 10.7045 10.7358 11.1477C9.79261 11.5909 8.65057 11.8125 7.30966 11.8125H2.69886V8.84659H6.71307C7.41761 8.84659 8.00284 8.75 8.46875 8.55682C8.93466 8.36364 9.28125 8.07386 9.50852 7.6875C9.74148 7.30114 9.85795 6.82102 9.85795 6.24716C9.85795 5.66761 9.74148 5.17898 9.50852 4.78125C9.28125 4.38352 8.93182 4.08239 8.46023 3.87784C7.99432 3.66761 7.40625 3.5625 6.69602 3.5625H4.20739V18H0.517045ZM9.94318 10.0568L14.2812 18H10.2074L5.96307 10.0568H9.94318ZM25.7358 5.56534C25.6676 4.87784 25.375 4.34375 24.858 3.96307C24.3409 3.58239 23.6392 3.39204 22.7528 3.39204C22.1506 3.39204 21.642 3.47727 21.2273 3.64773C20.8125 3.8125 20.4943 4.04261 20.2727 4.33807C20.0568 4.63352 19.9489 4.96875 19.9489 5.34375C19.9375 5.65625 20.0028 5.92898 20.1449 6.16193C20.2926 6.39489 20.4943 6.59659 20.75 6.76705C21.0057 6.93182 21.3011 7.0767 21.6364 7.2017C21.9716 7.32102 22.3295 7.4233 22.7102 7.50852L24.2784 7.88352C25.0398 8.05398 25.7386 8.28125 26.375 8.56534C27.0114 8.84943 27.5625 9.19886 28.0284 9.61364C28.4943 10.0284 28.8551 10.517 29.1108 11.0795C29.3722 11.642 29.5057 12.2869 29.5114 13.0142C29.5057 14.0824 29.233 15.0085 28.6932 15.7926C28.1591 16.571 27.3864 17.1761 26.375 17.608C25.3693 18.0341 24.1563 18.2472 22.7358 18.2472C21.3267 18.2472 20.0994 18.0312 19.054 17.5994C18.0142 17.1676 17.2017 16.5284 16.6165 15.6818C16.0369 14.8295 15.733 13.7756 15.7045 12.5199H19.2756C19.3153 13.1051 19.483 13.5937 19.7784 13.9858C20.0795 14.3722 20.4801 14.6648 20.9801 14.8636C21.4858 15.0568 22.0568 15.1534 22.6932 15.1534C23.3182 15.1534 23.8608 15.0625 24.321 14.8807C24.7869 14.6989 25.1477 14.446 25.4034 14.1222C25.6591 13.7983 25.7869 13.4261 25.7869 13.0057C25.7869 12.6136 25.6705 12.2841 25.4375 12.017C25.2102 11.75 24.875 11.5227 24.4318 11.3352C23.9943 11.1477 23.4574 10.9773 22.821 10.8239L20.9205 10.3466C19.4489 9.98864 18.2869 9.42898 17.4347 8.66761C16.5824 7.90625 16.1591 6.88068 16.1648 5.59091C16.1591 4.53409 16.4403 3.6108 17.0085 2.82102C17.5824 2.03125 18.3693 1.41477 19.3693 0.971591C20.3693 0.528409 21.5057 0.306818 22.7784 0.306818C24.0739 0.306818 25.2045 0.528409 26.1705 0.971591C27.142 1.41477 27.8977 2.03125 28.4375 2.82102C28.9773 3.6108 29.2557 4.52557 29.2727 5.56534H25.7358Z" fill="#D3E97A"/>
</svg>
