<svg width="39" height="39" viewBox="0 0 39 39" fill="none" xmlns="http://www.w3.org/2000/svg">
<rect width="39" height="39" rx="5" fill="black"/>
<path d="M5.91761 28V10.5455H12.1392C13.4915 10.5455 14.6136 10.7784 15.5057 11.2443C16.4034 11.7102 17.0739 12.3551 17.517 13.179C17.9602 13.9972 18.1818 14.9432 18.1818 16.017C18.1818 17.0852 17.9574 18.0256 17.5085 18.8381C17.0653 19.6449 16.3949 20.2727 15.4972 20.7216C14.6051 21.1705 13.483 21.3949 12.1307 21.3949H7.41761V19.1278H11.892C12.7443 19.1278 13.4375 19.0057 13.9716 18.7614C14.5114 18.517 14.9062 18.1619 15.1562 17.696C15.4062 17.2301 15.5312 16.6705 15.5312 16.017C15.5312 15.358 15.4034 14.7869 15.1477 14.304C14.8977 13.821 14.5028 13.4517 13.9631 13.196C13.429 12.9347 12.7273 12.804 11.858 12.804H8.55114V28H5.91761ZM14.5341 20.125L18.8466 28H15.8466L11.6193 20.125H14.5341ZM30.9062 15.1307C30.8153 14.3239 30.4403 13.6989 29.7812 13.2557C29.1222 12.8068 28.2926 12.5824 27.2926 12.5824C26.5767 12.5824 25.9574 12.696 25.4347 12.9233C24.9119 13.1449 24.5057 13.4517 24.2159 13.8438C23.9318 14.2301 23.7898 14.6705 23.7898 15.1648C23.7898 15.5795 23.8864 15.9375 24.0795 16.2386C24.2784 16.5398 24.5369 16.7926 24.8551 16.9972C25.179 17.196 25.5256 17.3636 25.8949 17.5C26.2642 17.6307 26.6193 17.7386 26.9602 17.8239L28.6648 18.267C29.2216 18.4034 29.7926 18.5881 30.3778 18.821C30.9631 19.054 31.5057 19.3608 32.0057 19.7415C32.5057 20.1222 32.9091 20.5938 33.2159 21.1562C33.5284 21.7188 33.6847 22.392 33.6847 23.1761C33.6847 24.1648 33.429 25.0426 32.9176 25.8097C32.4119 26.5767 31.6761 27.1818 30.7102 27.625C29.75 28.0682 28.5881 28.2898 27.2244 28.2898C25.9176 28.2898 24.7869 28.0824 23.8324 27.6676C22.8778 27.2528 22.1307 26.6648 21.5909 25.9034C21.0511 25.1364 20.7528 24.2273 20.696 23.1761H23.3381C23.3892 23.8068 23.5938 24.3324 23.9517 24.7528C24.3153 25.1676 24.7784 25.4773 25.3409 25.6818C25.9091 25.8807 26.5312 25.9801 27.2074 25.9801C27.9517 25.9801 28.6136 25.8636 29.1932 25.6307C29.7784 25.392 30.2386 25.0625 30.5739 24.642C30.9091 24.2159 31.0767 23.7187 31.0767 23.1506C31.0767 22.6335 30.929 22.2102 30.6335 21.8807C30.3438 21.5511 29.9489 21.2784 29.4489 21.0625C28.9545 20.8466 28.3949 20.6562 27.7699 20.4915L25.7074 19.929C24.3097 19.5483 23.2017 18.9886 22.3835 18.25C21.571 17.5114 21.1648 16.5341 21.1648 15.3182C21.1648 14.3125 21.4375 13.4347 21.983 12.6847C22.5284 11.9347 23.267 11.3523 24.1989 10.9375C25.1307 10.517 26.1818 10.3068 27.3523 10.3068C28.5341 10.3068 29.5767 10.5142 30.4801 10.929C31.3892 11.3438 32.1051 11.9148 32.6278 12.642C33.1506 13.3636 33.4233 14.1932 33.446 15.1307H30.9062Z" fill="#D3E97A"/>
</svg>
